inDegrees=no
num_controls=7
num_derivatives=13
num_iterations=111
num_multipliers=7
num_parameters=0
num_slacks=7
num_states=26
objective=5.714031
objective_accelerations=0.840318
objective_balance=0.054721
objective_effort=0.347663
objective_height=4.356010
objective_ligament=0.115319
solver_duration=1246.222265
status=Solve_Succeeded
success=true
DataType=double
version=3
OpenSimVersion=4.4-2022-07-23-0e9fedc
endheader
time	/jointset/ground_pelvis/pelvis_tilt/value	/jointset/ground_pelvis/pelvis_tx/value	/jointset/ground_pelvis/pelvis_ty/value	/jointset/hip_l/hip_flexion_l/value	/jointset/hip_l/hip_adduction_l/value	/jointset/hip_l/hip_rotation_l/value	/jointset/back/lumbar_extension/value	/jointset/patellofemoral_l/patellar_flexion_l/value	/jointset/knee_l/knee_flexion_l/value	/jointset/knee_l/knee_adduction_l/value	/jointset/knee_l/knee_rotation_l/value	/jointset/ankle_l/ankle_angle_l/value	/jointset/subtalar_l/subtalar_angle_l/value	/jointset/ground_pelvis/pelvis_tilt/speed	/jointset/ground_pelvis/pelvis_tx/speed	/jointset/ground_pelvis/pelvis_ty/speed	/jointset/hip_l/hip_flexion_l/speed	/jointset/hip_l/hip_adduction_l/speed	/jointset/hip_l/hip_rotation_l/speed	/jointset/back/lumbar_extension/speed	/jointset/patellofemoral_l/patellar_flexion_l/speed	/jointset/knee_l/knee_flexion_l/speed	/jointset/knee_l/knee_adduction_l/speed	/jointset/knee_l/knee_rotation_l/speed	/jointset/ankle_l/ankle_angle_l/speed	/jointset/subtalar_l/subtalar_angle_l/speed	/forceset/tau_hip_flexion_l	/forceset/tau_hip_adduction_l	/forceset/tau_hip_rotation_l	/forceset/tau_knee_flexion_l	/forceset/tau_ankle_angle_l	/forceset/tau_subtalar_angle_l	/forceset/tau_lumbar_extension	lambda_cid13_p0	lambda_cid13_p1	lambda_cid13_p2	lambda_cid13_p3	lambda_cid13_p4	lambda_cid13_p5	lambda_cid14_p0	/jointset/ground_pelvis/pelvis_tilt/accel	/jointset/ground_pelvis/pelvis_tx/accel	/jointset/ground_pelvis/pelvis_ty/accel	/jointset/hip_l/hip_flexion_l/accel	/jointset/hip_l/hip_adduction_l/accel	/jointset/hip_l/hip_rotation_l/accel	/jointset/back/lumbar_extension/accel	/jointset/patellofemoral_l/patellar_flexion_l/accel	/jointset/knee_l/knee_flexion_l/accel	/jointset/knee_l/knee_adduction_l/accel	/jointset/knee_l/knee_rotation_l/accel	/jointset/ankle_l/ankle_angle_l/accel	/jointset/subtalar_l/subtalar_angle_l/accel	gamma_cid13_p0	gamma_cid13_p1	gamma_cid13_p2	gamma_cid13_p3	gamma_cid13_p4	gamma_cid13_p5	gamma_cid14_p0
0.5	-0.445572809078669	-0.09197329063167867	0.7361491822006302	1.279420936768965	-0.43300917603665	-0.2261779482983214	-0.256904025603929	0.7887398917640089	0.7887398917639507	-0.1295723612504851	-0.1607017560391196	0.01164763626088693	-0.07823807834666353	-1.033606862785623	-0.3330018035238317	-0.6194523801747247	2.94155172298403	-0.1969511632662098	0.7362934060070433	-0.09466326709478989	1.941921418532199	1.941921418532545	0.1260337429171313	-0.08306063685039218	0.1947421063054592	-0.1257390823676018	-0.214005958048735	0.01537043115508911	-0.009968833180768107	-0.1996106972843063	0.1162584368704028	0.05070330642009845	0.1961876836219969	4.188156586438642	-25.10076312664312	6.346670877324152	-11.4241928473071	-518.8317657809718	-56.51366516289011	-26.06116734957582	1.149070067345353	0.8337816174103264	-0.4917104674207297	-1.727908311801298	0.761159867786282	-0.1927662545193922	1.138051883741477	-1.203372648216955	-1.203372648216961	0.1236667253091966	0.2082352131287254	-0.4090535620620089	0.5953980345730698	-5.16750427277643e-07	-4.707894129789746e-07	2.455987759172705e-06	1.000585519685379e-07	-6.176162604756409e-07	6.557741679084154e-07	-4.57466133452642e-07
0.51	-0.4558487535204921	-0.09526118548656148	0.7299314466792007	1.308744251074567	-0.4349419459696406	-0.2188237550553203	-0.257795566062886	0.8080960987642244	0.8080960987641985	-0.1283101777801577	-0.1615216929865881	0.01357373256869608	-0.0794675399389343	-1.021424937120056	-0.3245450726715716	-0.6239618634182167	2.922709268130832	-0.1895890622832593	0.7344610990048298	-0.08371327992425447	1.929064270194894	1.929064270195205	0.1263834186513777	-0.08091432178662168	0.1904317405524101	-0.1201565706215448	-0.2210274234256254	0.01554234645767461	-0.010066523274572	-0.202009103252746	0.1177473632737785	0.05148974863970029	0.2014158426604534	4.399268992597852	-25.4432259881551	6.360086624189916	-11.657476709953	-523.2370392575981	-56.08794631906161	-25.17115137493225	1.276247261352581	0.8564528499200305	-0.4107561029785604	-2.022775657442479	0.7255847271796961	-0.1914607531228846	1.063203849949662	-1.365153319361095	-1.365153319366455	-0.01229482601815413	0.2202040496533858	-0.4488225710719481	0.5389666361998977	-4.96622936072082e-07	-4.066849517831363e-07	2.423784517517956e-06	1.051118972043002e-07	-5.743907329296483e-07	6.972277796052565e-07	-4.431808995172673e-07
0.52	-0.4659981800166028	-0.09846354622676463	0.7236725785553036	1.337867068514583	-0.4368007249900718	-0.2114904844484544	-0.2585796603068767	0.8273160808024674	0.8273160808025091	-0.1270450801171281	-0.1623196919041228	0.01545536632113208	-0.08064131863542921	-1.008303273646837	-0.3158949805879022	-0.6276789006681197	2.901452349863153	-0.1821529807550313	0.7321088788005767	-0.07317402410410451	1.914676426142646	1.914676426142922	0.1266165814455734	-0.07867303085676892	0.1858495952335277	-0.1146025032123915	-0.2280488888025918	0.01571426175995383	-0.01016421336747644	-0.2044075092212977	0.1192362896770325	0.0522761908589013	0.2066440016989897	4.604674586566978	-25.78587975605664	6.374893660954882	-11.90870201359721	-527.7463446027863	-55.71762608476769	-24.28190686780312	1.337017628876222	0.872453863691931	-0.3332212687030233	-2.210800994697472	0.7759559768418931	-0.296748894927321	1.055905613664574	-1.509511791205542	-1.509511791205477	0.1003641372992174	0.2272303863451328	-0.4634094752289954	0.5897091671921841	-4.866193957578351e-07	-3.453958863155923e-07	2.445366458689232e-06	1.173152319500303e-07	-5.433193718187172e-07	7.482437339701846e-07	-4.364348882677393e-07
0.53	-0.4760119504715382	-0.1015785777805688	0.7173805109550482	1.366765707262457	-0.4385847013421594	-0.2041833068010271	-0.2592605251584479	0.8463846856137517	0.8463846856138059	-0.1257779913017154	-0.1630947952562613	0.01728984854096519	-0.08175960455842993	-0.9943068413672764	-0.3070921044851764	-0.6305988605110661	2.877893049536536	-0.1746290919039253	0.7292179214495845	-0.0630921075622972	1.898794126753754	1.898794126753945	0.1268047421496095	-0.07634840692958347	0.1809995171071774	-0.1090589789285301	-0.2348791236737773	0.01568926246447785	-0.01021435018542288	-0.2067859081079155	0.1206085119055193	0.05289155339335951	0.2116443823701814	4.774453343029314	-26.04709162656459	6.375682584859299	-12.00993576934638	-532.131288692388	-55.24913975373579	-23.39445323898349	1.452481602599912	0.8871130808314279	-0.2511249113951146	-2.485928223025196	0.7423431874746915	-0.301937587862688	0.9703604721191967	-1.665063838362512	-1.665063838375274	-0.02139207892237591	0.2354789918988046	-0.5028811541686115	0.5357932442541478	-4.767322835336509e-07	-2.815181647825151e-07	2.462110296471169e-06	1.344937674923714e-07	-5.153455155981085e-07	7.952137261141977e-07	-4.277715727697521e-07
0.54	-0.4858814514886378	-0.1046049988538926	0.7110632954425027	1.395417266272801	-0.4402930912360808	-0.1969083724136939	-0.2598433656850517	0.8652869724660303	0.8652869724660855	-0.1245089077024864	-0.1638465722498568	0.01907441514496579	-0.08282263140153807	-0.9794493860835704	-0.2981728844918242	-0.6327084831259862	2.852036402354683	-0.1670356891236165	0.7256602267915024	-0.05356915911326498	1.88141283433962	1.881412834339728	0.127015538218518	-0.07400775916266868	0.1758664720675988	-0.1035506872338382	-0.2417093585449825	0.01566426316888509	-0.01026448700375304	-0.2091643069944963	0.1219807341339801	0.05350691592768351	0.2166447630413992	4.937686796419212	-26.30818179611128	6.377623648096511	-12.12458780215095	-536.634366056501	-54.83736828852427	-22.51030596195792	1.509222229705443	0.8957226418168717	-0.1711538230978669	-2.670270365744407	0.789858762682483	-0.4300963563453196	0.944111995109745	-1.809310396253591	-1.809310396253609	0.1048912102738866	0.2304351542909822	-0.5200028578750903	0.5826626493581168	-4.669739853665572e-07	-2.147763982407628e-07	2.473501339013837e-06	1.571767805118139e-07	-4.907986860646653e-07	8.377073345244326e-07	-4.169869844862356e-07
0.55	-0.4955983209052817	-0.107541740266345	0.7047290262940992	1.423799183748601	-0.4419252037148542	-0.189671923952018	-0.2603337605953889	0.8840081496113169	0.8840081496114099	-0.1232377418755859	-0.1645746157125132	0.02080633618105697	-0.08383071040218854	-0.963786103948031	-0.2891638404086334	-0.6340090090328281	2.823976801979322	-0.1593840290828849	0.7215377327133685	-0.04462119221505723	1.862589809666009	1.862589809666027	0.1272041094630173	-0.07159559128049642	0.1704795405085539	-0.09807623982789583	-0.2483615864287126	0.0154157479571656	-0.01025460244165544	-0.2114815555589281	0.123278423099109	0.05397594698365921	0.2214482849232193	5.084650623342007	-26.50235123743822	6.368299934315882	-12.15261982785612	-540.9566325022854	-54.33882081981389	-21.63187773405541	1.615570375361657	0.9052628389668187	-0.08914682840637438	-2.929428039824198	0.7529693165341785	-0.4174219138987021	0.8534336484538502	-1.953634040884259	-1.953634040897722	-0.02613948921887435	0.2479258937310762	-0.5537348191231374	0.5279060753059183	-4.537240021970571e-07	-1.481597772314676e-07	2.473681033533897e-06	1.784462374998608e-07	-4.638284460400609e-07	8.73082687417079e-07	-4.036023898644827e-07
0.5600000000000001	-0.5051544196665827	-0.1103880377284869	0.6983858229158415	1.451889380587438	-0.4434807696548461	-0.1824795196271469	-0.2607380169144585	0.9025341294023665	0.9025341294023104	-0.1219650862506119	-0.165278273838384	0.02248324859873239	-0.08478443087096113	-0.9472952550171946	-0.2800840944297188	-0.6344953290966624	2.793692274948252	-0.151726381371599	0.7168513994212414	-0.03634144086573824	1.842373363473636	1.842373363473565	0.1273134978772929	-0.06913069185632138	0.1648647483813426	-0.09267898085820996	-0.2550138143118411	0.01516723274568815	-0.01024471788288853	-0.2137988041231625	0.1245761120642738	0.05444497803995876	0.2262518068055776	5.225803309643367	-26.69646079794837	6.360061995963339	-12.19919376252461	-545.3904187387093	-53.89426020038131	-20.76377150277574	1.674735588765204	0.9098630209612635	-0.008312654496431201	-3.115255696886186	0.7910562967931128	-0.5428641991440361	0.8104688853323656	-2.087994700005847	-2.087994700005716	0.08905464422932849	0.2409814626915575	-0.5655749715088437	0.5672249621066796	-4.362839970246692e-07	-8.169333086112107e-08	2.460407110426827e-06	1.980194272502332e-07	-4.339501134260635e-07	8.999161336886193e-07	-3.870977876368465e-07
0.5700000000000001	-0.5145418384705733	-0.1131433013312161	0.6920418108909551	1.479666123676045	-0.4449596223782404	-0.175336688539152	-0.2610627794715085	0.9208510748023991	0.920851074802356	-0.1206915330489647	-0.1659568945732365	0.02410291439163729	-0.08568443000473921	-0.9300671082943534	-0.2709669819233851	-0.6341707140777185	2.761306685221757	-0.1440451417356092	0.7116111543109315	-0.02873886097099543	1.820789571672977	1.820789571672942	0.1273926612225515	-0.06659446780099768	0.1590320725374092	-0.08733493667418574	-0.2613641527184692	0.01470647423494903	-0.01017826836903336	-0.2161419037961173	0.1258620586574454	0.05473873231923109	0.230757737961326	5.371730682346786	-26.81518406540387	6.339690144625103	-12.14414909564046	-549.6041457741198	-53.35988131354279	-19.90826062814716	1.764997431027978	0.9129238116874142	0.07321944038783756	-3.352734478896699	0.7562248268217439	-0.5304592504711992	0.715983978180336	-2.227417596496562	-2.227417596491299	-0.03326119830675331	0.2602986452243303	-0.5975244194845428	0.5156011100851021	-4.160459126448591e-07	-2.111593051572487e-08	2.42790976822774e-06	2.138556104673918e-07	-4.026405326934392e-07	9.176262952149776e-07	-3.686428330753926e-07
0.58	-0.5237533471639224	-0.1158073361196386	0.6857051191883177	1.507108506093754	-0.4463617492992977	-0.1682494308189738	-0.2613153499422526	0.9389454130491424	0.9389454130490977	-0.1194173098894897	-0.1666100819138612	0.02566317132037615	-0.08653146730397036	-0.9121132328921394	-0.2618383315683865	-0.6330312646467078	2.726820140760658	-0.1363812209068422	0.7057367258607663	-0.02190302361084323	1.797851932816299	1.7978519328163	0.1274474894485843	-0.06404401301481558	0.1529829755475084	-0.08208661394877677	-0.26771449112486	0.01424571572423798	-0.01011181885548463	-0.2184850034690674	0.1271480052505966	0.05503248659852929	0.23526366911732	5.512353922968373	-26.93363284074698	6.320023321310735	-12.11062299434425	-553.9259813537429	-52.87574726087217	-19.0670759028397	1.819881324640119	0.9121705906939056	0.1546542279167963	-3.535446643807037	0.787592535348554	-0.669700867115142	0.6571203784146474	-2.358764111209555	-2.358764111209544	0.08418762038429556	0.24382760886323	-0.6088592007027942	0.5480806703834519	-3.921638181344529e-07	3.179201454136358e-08	2.370377275583237e-06	2.248249944785047e-07	-3.694670009226038e-07	9.234549696313318e-07	-3.476478847768741e-07
0.59	-0.5327819264483635	-0.1183801118667179	0.6793838694210331	1.534195909542705	-0.4476872464061271	-0.1612237701862136	-0.2615034129571667	0.9568037804526739	0.956803780452597	-0.118142634172679	-0.1672374568314754	0.02716197384239585	-0.08732636251947795	-0.893485335280629	-0.2527219277460019	-0.631083304256527	2.690319408564358	-0.1287277047733017	0.6993135889456764	-0.01585986603601649	1.773609483842719	1.773609483842721	0.1274622764832979	-0.0614221344734126	0.1467500381174059	-0.07691178542402592	-0.2737663338387772	0.01357094502957882	-0.009979452367793764	-0.2208081617416003	0.1283965857072933	0.05518869266455095	0.2394852753364406	5.653824783316687	-26.9919605567514	6.290162094023961	-12.00024366995271	-557.9856052972265	-52.32732214041964	-18.24154139264535	1.901776694672753	0.9106550425983231	0.2351046209238724	-3.758625850371103	0.7525150893085186	-0.6411584557874115	0.5553704492825177	-2.488727828436947	-2.488727828437157	-0.04360929122406366	0.2731743848903908	-0.6345894919406496	0.4989971458373168	-3.661447803407813e-07	7.554619096421912e-08	2.293697896337384e-06	2.315560183242777e-07	-3.356791228389055e-07	9.210214996583558e-07	-3.255229051703698e-07
